<svg width="52" height="35" viewBox="0 0 52 35" fill="none" xmlns="http://www.w3.org/2000/svg">
<path fill-rule="evenodd" clip-rule="evenodd" d="M38 1C38 0.447715 38.4477 0 39 0H45C45.5523 0 46 0.447716 46 1V17C46 17.5523 46.4477 18 47 18H50.6603C51.4301 18 51.9112 18.8333 51.5263 19.5L42.866 34.5C42.4811 35.1667 41.5189 35.1667 41.134 34.5L32.4737 19.5C32.0888 18.8333 32.5699 18 33.3397 18H37C37.5523 18 38 17.5523 38 17V1ZM0 2.40002C0 1.84774 0.447717 1.40002 1 1.40002H10.2092C10.732 1.40002 11.1666 1.80283 11.2063 2.3242L13.056 26.648V30.968C13.056 31.2861 13.3139 31.544 13.632 31.544V31.544C13.9501 31.544 14.208 31.2861 14.208 30.968V26.648L16.0577 2.3242C16.0974 1.80283 16.532 1.40002 17.0548 1.40002H26.264C26.8163 1.40002 27.264 1.84774 27.264 2.40002V34C27.264 34.5523 26.8163 35 26.264 35H22.504C21.9517 35 21.504 34.5523 21.504 34V12.536L22.0335 5.47559C22.0586 5.14118 21.794 4.85603 21.4587 4.85603V4.85603C21.1588 4.85603 20.909 5.08601 20.8842 5.38491L18.508 34.0825C18.465 34.6011 18.0317 35 17.5114 35H9.8457C9.32663 35 8.89385 34.6029 8.84938 34.0857L6.38139 5.38386C6.35572 5.0853 6.10588 4.85603 5.80621 4.85603V4.85603C5.47037 4.85603 5.20542 5.1416 5.23054 5.4765L5.76 12.536V34C5.76 34.5523 5.31228 35 4.76 35H1C0.447715 35 0 34.5523 0 34V2.40002Z" fill="#FAFAFA"/>
</svg>
